<svg height="605pt" viewBox="-19 -22 605.33577 605" width="605pt" xmlns="http://www.w3.org/2000/svg"><path d="m554.371094 232.71875-253.550782-215.941406c-9.753906-8.363282-24.140624-8.363282-33.886718 0l-253.550782 215.949218c-15.96875 13.644532-17.921874 37.625-4.375 53.675782l.117188.136718c13.679688 15.996094 37.730469 17.882813 53.738281 4.21875l191.058594-163.113281c17.21875-14.816406 42.683594-14.816406 59.898437 0l191.0625 163.113281.097657.082032c16.070312 13.367187 39.90625 11.304687 53.445312-4.625 13.535157-15.925782 11.730469-39.785156-4.054687-53.488282zm0 0"/><path d="m342.203125 302.378906c-16.324219 0-34.464844 6.910156-52.464844 19.972656-3.539062 2.566407-8.339843 2.539063-11.847656-.078124-17.996094-13.429688-36.210937-20.527344-52.671875-20.527344-28.523438 0-50.027344 19.964844-56.121094 52.101562-9.644531 50.289063 22.121094 117.472656 114.765625 154.441406 66.847657-27.273437 128.140625-85.476562 114.792969-154.363281-6.429688-31.800781-28.054688-51.546875-56.453125-51.546875zm0 0"/><path d="m437.59375-.0898438c-17.253906.0195313-31.230469 13.9999998-31.246094 31.2499998v49.253906l62.488282 53.238282v-102.492188c-.015626-17.25-13.992188-31.2304685-31.242188-31.2499998zm0 0"/><path d="m491.875 305.960938-191.078125-163.109376c-9.773437-8.394531-24.214844-8.394531-33.984375 0l-191.160156 163.109376c-1.308594 1.113281-2.976563 2.167968-4.226563 3.152343v200.992188c0 27.6875 22.917969 49.949219 50.613281 49.949219h323.675782c27.6875 0 50.613281-22.261719 50.613281-49.949219v-201.007813c-1.25-.9375-2.8125-1.925781-4.0625-2.980468zm-201.082031 221.097656c-.199219.085937-.394531.15625-.59375.222656-4.082031 1.527344-8.578125 1.527344-12.660157 0-.175781-.058594-.355468-.125-.527343-.191406-103.679688-41.144532-138.769531-118.539063-127.558594-176.988282 7.875-41.511718 37.621094-68.351562 75.765625-68.351562 19.195312 0 38.925781 6.824219 58.738281 20.292969 19.558594-12.882813 39.578125-19.660157 58.246094-19.660157 37.917969 0 67.773437 26.546876 76.058594 67.628907l.011719.066406c11.230468 57.835937-23.835938 134.996094-127.480469 176.980469zm0 0"/></svg>