<?xml version="1.0" encoding="iso-8859-1"?>
<!-- Generator: Adobe Illustrator 19.1.0, SVG Export Plug-In . SVG Version: 6.00 Build 0)  -->
<svg version="1.1" id="Capa_1" xmlns="http://www.w3.org/2000/svg" xmlns:xlink="http://www.w3.org/1999/xlink" x="0px" y="0px"
	 viewBox="0 0 486.252 486.252" style="enable-background:new 0 0 486.252 486.252;" xml:space="preserve">
<g>
	<g id="XMLID_53_">
		<path d="M486.016,385.826c-9.9-66.9-35.8-132.7-97-153.9c23.8-14.8,39.6-41.2,39.6-71.2c0-46.3-37.6-83.9-83.9-83.9
			s-83.9,37.6-83.9,83.9c0,30.1,15.8,56.4,39.6,71.2c-16,5.5-29.6,14.1-41.1,25c5.5,7.1,10.6,14.8,15.3,23.1
			c15.3,27.3,26.1,61.7,32.1,102.3c1.4,9.4-0.3,18.9-4.6,27.1h163.5C478.116,409.426,487.916,398.326,486.016,385.826z
			 M344.716,133.326c-15.1,0-27.3,12.3-27.3,27.3c0,6.9-5.6,12.5-12.5,12.5s-12.5-5.6-12.5-12.5c0-28.9,23.5-52.4,52.4-52.4
			c6.9,0,12.5,5.6,12.5,12.5C357.216,127.726,351.616,133.326,344.716,133.326z M185.816,231.926c23.8-14.8,39.6-41.2,39.6-71.2
			c0-46.3-37.6-83.9-83.9-83.9s-83.9,37.6-83.9,83.9c0,30.1,15.8,56.4,39.6,71.2c-61.2,21.2-87.1,87-97,153.9
			c-1.8,12.5,7.9,23.6,20.5,23.6h241.6c12.6,0,22.4-11.2,20.5-23.6C273.016,318.926,247.016,253.126,185.816,231.926z
			 M141.516,133.326c-15.1,0-27.3,12.3-27.3,27.3c0,6.9-5.6,12.5-12.5,12.5s-12.5-5.6-12.5-12.5c0-28.9,23.5-52.4,52.4-52.4
			c6.9,0,12.5,5.6,12.5,12.5C154.016,127.726,148.416,133.326,141.516,133.326z"/>
	</g>
</g>
<g>
</g>
<g>
</g>
<g>
</g>
<g>
</g>
<g>
</g>
<g>
</g>
<g>
</g>
<g>
</g>
<g>
</g>
<g>
</g>
<g>
</g>
<g>
</g>
<g>
</g>
<g>
</g>
<g>
</g>
</svg>
