<svg xmlns="http://www.w3.org/2000/svg" viewBox="0 0 264.1 264.1">
  <defs>
    <style>.cls-1{fill:#3a63ff}.cls-2{fill:#fff}</style>
  </defs>
  <title>icon_white_blue_cir</title>
  <g id="Layer_2" data-name="Layer 2">
    <g id="Layer_2-2" data-name="Layer 2">
      <rect class="cls-1" width="264.1" height="264.1" rx="132.05" ry="132.05"/>
      <path class="cls-2"
            d="M200.13 152.42c-3.71 34.25-32.74 61.09-67.88 61.09A68.21 68.21 0 0 1 64 145.23v-85.5a9.15 9.15 0 0 1 9.14-9.14h19.11a9.07 9.07 0 0 1 9.14 9.14V77H144a9.15 9.15 0 0 1 9.14 9.14v19.12a9 9 0 0 1-9.15 9h-39.55a3.81 3.81 0 0 0-3.85 3.81v27.5a31.71 31.71 0 0 0 62.57 6.84z"/>
    </g>
  </g>
</svg>
