<svg xmlns="http://www.w3.org/2000/svg" viewBox="0 0 264.6 264.6">
  <defs>
    <style>.cls-1{fill:#fff;stroke:#cfd1d9;stroke-miterlimit:10;stroke-width:.5px}.cls-2{fill:#3d4867}</style>
  </defs>
  <title>icon_db_white_cir</title>
  <g id="Layer_2" data-name="Layer 2">
    <g id="Layer_2-2" data-name="Layer 2">
      <rect class="cls-1" x=".25" y=".25" width="264.1" height="264.1" rx="132.05" ry="132.05"/>
      <path class="cls-2"
            d="M200.38 152.67c-3.71 34.25-32.74 61.09-67.88 61.09a68.21 68.21 0 0 1-68.28-68.28V60a9.15 9.15 0 0 1 9.14-9.14H92.5a9.07 9.07 0 0 1 9.14 9.14v17.2h42.63a9.15 9.15 0 0 1 9.14 9.14v19.12a9 9 0 0 1-9.15 9h-39.57a3.81 3.81 0 0 0-3.85 3.81v27.5a31.71 31.71 0 0 0 62.57 6.84z"/>
    </g>
  </g>
</svg>
