<svg xmlns="http://www.w3.org/2000/svg" viewBox="0 0 1277.94 456.1">
  <defs>
    <style>.cls-1{fill:#3d4867}.cls-2{fill:#fff}</style>
  </defs>
  <title>logo_deep_blue_rectangle</title>
  <g id="Layer_2" data-name="Layer 2">
    <g id="Layer_2-2" data-name="Layer 2">
      <path class="cls-1" d="M0 0h1277.94v456.1H0z"/>
      <path class="cls-2"
            d="M666.33 165.61A76.77 76.77 0 0 0 631.1 174v-28a10.35 10.35 0 0 0-10.43-10.43h-21.82A10.44 10.44 0 0 0 588.42 146v92.28a6.59 6.59 0 0 0 .14 1.63 33 33 0 0 0-.14 3.66 77.92 77.92 0 1 0 77.92-77.92zm0 114.09a36.18 36.18 0 1 1 36.18-36.18 36.26 36.26 0 0 1-36.18 36.18z"/>
      <path class="cls-2"
            d="M830.48 165.61a76.77 76.77 0 0 0-35.23 8.4V146a10.35 10.35 0 0 0-10.43-10.43H763A10.44 10.44 0 0 0 752.57 146v92.28a6.59 6.59 0 0 0 .14 1.63 33 33 0 0 0-.14 3.66 77.92 77.92 0 1 0 77.92-77.92zm0 114.09a36.18 36.18 0 1 1 36.18-36.18 36.26 36.26 0 0 1-36.18 36.18zM502.18 165.61a77.92 77.92 0 1 0 0 155.83h68.43a9.43 9.43 0 0 0 9.49-9.44v-68.48a77.93 77.93 0 0 0-77.92-77.91zm0 114.09a36.18 36.18 0 1 1 36-36.18 36.17 36.17 0 0 1-36 36.18zM415.72 250.86c-4.24 39.08-37.36 69.71-77.46 69.71a77.84 77.84 0 0 1-77.92-77.92v-97.56a10.44 10.44 0 0 1 10.43-10.43h21.82a10.35 10.35 0 0 1 10.43 10.43v19.65h48.68a10.44 10.44 0 0 1 10.43 10.43V197a10.27 10.27 0 0 1-10.44 10.33h-45.16a4.35 4.35 0 0 0-4.4 4.35v31.38a36.18 36.18 0 0 0 71.4 7.81zM1017.59 172.78v28.32a6.64 6.64 0 0 1-5.46 6.65 36.28 36.28 0 0 0-30.72 35.77 77.84 77.84 0 0 1-70.74 77.59 6.77 6.77 0 0 1-7.18-6.85v-28.32a6.64 6.64 0 0 1 5.46-6.65 36.28 36.28 0 0 0 30.72-35.77 77.84 77.84 0 0 1 70.74-77.59 6.77 6.77 0 0 1 7.18 6.85z"/>
    </g>
  </g>
</svg>
