<svg xmlns="http://www.w3.org/2000/svg" viewBox="0 0 757.24 186.78">
  <defs>
    <style>.cls-1{fill:#cfd1d9}</style>
  </defs>
  <title>logo_gray</title>
  <g id="Layer_2" data-name="Layer 2">
    <g id="Layer_2-2" data-name="Layer 2">
      <path class="cls-1"
            d="M406 31a76.77 76.77 0 0 0-35.23 8.4v-28A10.35 10.35 0 0 0 360.32.87H338.5a10.44 10.44 0 0 0-10.43 10.43v92.28a6.59 6.59 0 0 0 .14 1.63 33 33 0 0 0-.14 3.66A77.92 77.92 0 1 0 406 31zm0 114a36.18 36.18 0 1 1 36.18-36.18A36.26 36.26 0 0 1 406 145z"/>
      <path class="cls-1"
            d="M570.13 31a76.77 76.77 0 0 0-35.23 8.4v-28A10.35 10.35 0 0 0 524.47.87h-21.82a10.44 10.44 0 0 0-10.43 10.43v92.28a6.59 6.59 0 0 0 .14 1.63 33 33 0 0 0-.14 3.66A77.92 77.92 0 1 0 570.13 31zm0 114.09a36.18 36.18 0 1 1 36.18-36.18A36.26 36.26 0 0 1 570.13 145zM241.84 31a77.92 77.92 0 0 0 0 155.83h68.43a9.43 9.43 0 0 0 9.49-9.49v-68.47A77.93 77.93 0 0 0 241.84 31zm0 114.09a36.18 36.18 0 1 1 36-36.18 36.17 36.17 0 0 1-36 36.09zM155.37 116.2c-4.24 39.08-37.36 69.71-77.46 69.71A77.84 77.84 0 0 1 0 108V10.43A10.44 10.44 0 0 1 10.45 0h21.82A10.35 10.35 0 0 1 42.7 10.43v19.65h48.65a10.44 10.44 0 0 1 10.43 10.43v21.82a10.27 10.27 0 0 1-10.44 10.33H46.18a4.35 4.35 0 0 0-4.4 4.34v31.4a36.18 36.18 0 0 0 71.4 7.81zM757.24 38.13v28.32a6.64 6.64 0 0 1-5.46 6.65 36.28 36.28 0 0 0-30.72 35.77 77.84 77.84 0 0 1-70.74 77.59 6.77 6.77 0 0 1-7.18-6.85v-28.33a6.64 6.64 0 0 1 5.46-6.65 36.28 36.28 0 0 0 30.72-35.77 77.84 77.84 0 0 1 70.74-77.59 6.77 6.77 0 0 1 7.18 6.86z"/>
    </g>
  </g>
</svg>
