<svg xmlns="http://www.w3.org/2000/svg" viewBox="0 0 182.97 120.95"><title>Customers</title><g id="Layer_2" data-name="Layer 2"><g id="Layer_1-2" data-name="Layer 1"><path d="M104.3,70.18H83.93a36.25,36.25,0,1,0-25.58,0H38.18C17.13,70.18,0,87.63,0,109.08V121H142.31l.17-11.8v-.07C142.48,87.63,125.35,70.18,104.3,70.18ZM44.89,36.25A26.26,26.26,0,1,1,71.14,62.51,26.29,26.29,0,0,1,44.89,36.25ZM132.45,111H10v-1.87c0-15.93,12.64-28.9,28.18-28.9H104.3c15.53,0,28.16,13,28.18,28.87Z"/><path d="M157.89,55.19H147.32a23.5,23.5,0,1,0-17.78,0H119.1c-5.35,0-11.4,3.88-16.21,10h1.41a42.42,42.42,0,0,1,12.81,2,4.47,4.47,0,0,1,2-.73h38.79c3.24,0,13.84,10.23,13.85,23.9v.4H143.52A43.88,43.88,0,0,1,146.91,102h35.95L183,90.4v0C183,71.75,169,55.19,157.89,55.19Zm-33-21.75a13.5,13.5,0,1,1,13.5,13.5A13.51,13.51,0,0,1,124.93,33.44Z"/></g></g></svg>