<svg xmlns="http://www.w3.org/2000/svg" viewBox="-7 -50 530 470">
  <defs>
    <style>.cls-1{fill:#3b4766; stroke:#3b4766; stroke-width:10;}</style>
  </defs>
  <title>details_settings</title>
  <g id="Layer_2" data-name="Layer 2">
    <g id="Layer_2-2" data-name="Layer 2">
      <path class="cls-1"
            d="M92.08,152.38V0h-37V152.38C23.35,160.81,0,189.34,0,223.06a73.75,73.75,0,0,0,55.12,71.33V446.77h37V294.39c31.77-7.78,55.11-37,55.11-71.33C147.19,189.34,123.85,160.16,92.08,152.38Zm0,107.64c-5.19,3.24-11.67,4.54-18.16,4.54s-13-1.95-18.8-4.54c-13.62-7.13-22.7-20.75-22.7-37a39.71,39.71,0,0,1,22.7-36.31,38.38,38.38,0,0,1,18.8-4.54c6.49,0,13,1.3,18.16,4.54a39.72,39.72,0,0,1,22.69,36.31C114.77,239.27,105.69,253.53,92.08,260Z"/>
      <path class="cls-1"
            d="M274.29,267.15V0H238V267.15a73.08,73.08,0,0,0,0,142v37.61h36.31V409.16a73.09,73.09,0,0,0,0-142Zm0,107.64a38.58,38.58,0,0,1-36.31,0c-13.62-5.83-23.35-20.1-23.35-36.31a41.24,41.24,0,0,1,23.35-37,38.58,38.58,0,0,1,36.31,0,41.25,41.25,0,0,1,23.34,37C297.63,354.69,287.9,369,274.29,374.79Z"/>
      <path class="cls-1"
            d="M457.15,37V0h-37V37c-31.77,7.78-55.12,37-55.12,71.33s23.35,63.55,55.12,71.33V446.77h37V179.62a73.71,73.71,0,0,0,0-142.66Zm0,108.29c-5.84,2.59-12.32,4.54-18.81,4.54s-13-1.3-18.15-4.54c-13.62-6.48-22.7-20.75-22.7-37s9.08-30.47,22.7-37c5.18-3.24,11.67-4.54,18.15-4.54s13,1.95,18.81,4.54c13.61,7.14,22.69,20.75,22.69,37S470.76,138.12,457.15,145.25Z"/>
    </g>
  </g>
</svg>
