<svg xmlns="http://www.w3.org/2000/svg" viewBox="0 0 142.47 120.95"><title>Personal account</title><g id="Layer_2" data-name="Layer 2"><g id="Layer_1-2" data-name="Layer 1"><path d="M104.29,70.19H83.9a36.26,36.26,0,1,0-25.52,0H38.17C17.12,70.19,0,87.64,0,109.09V121H142.31l.16-11.8v-.06C142.47,87.64,125.34,70.19,104.29,70.19ZM44.88,36.26A26.26,26.26,0,1,1,71.14,62.51,26.29,26.29,0,0,1,44.88,36.26ZM132.44,111H10v-1.86c0-15.94,12.64-28.9,28.17-28.9h66.12c15.53,0,28.16,12.94,28.18,28.86Z"/></g></g></svg>